<?xml version="1.0" encoding="iso-8859-1"?>
<!-- Uploaded to: SVG Repo, www.svgrepo.com, Generator: SVG Repo Mixer Tools -->
<!DOCTYPE svg PUBLIC "-//W3C//DTD SVG 1.1//EN" "http://www.w3.org/Graphics/SVG/1.1/DTD/svg11.dtd">
<svg fill="#000000" version="1.1" id="Capa_1" xmlns="http://www.w3.org/2000/svg" xmlns:xlink="http://www.w3.org/1999/xlink" 
	 width="800px" height="800px" viewBox="0 0 122.508 122.508"
	 xml:space="preserve">
<g>
	<g>
		<path d="M106.727,77.498l-0.779-23.531c-0.166-5.694-4.916-10.176-10.61-10.012c-4.595,0.134-8.396,3.253-9.608,7.444
			l-6.904,9.452l-13.678-0.214c-2.283-0.016-4.21,1.807-4.246,4.118c-0.032,1.974,1.315,3.64,3.147,4.106H8.252
			c-1.49,0-2.699,1.211-2.699,2.699c0,1.489,1.209,2.699,2.699,2.699h2.626c-0.755,1.418-1.188,3.034-1.188,4.75v33.348
			c0,5.597,4.553,10.149,10.15,10.149c1.489,0,2.698-1.21,2.698-2.698s-1.209-2.701-2.698-2.701c-2.621,0-4.75-2.131-4.75-4.75
			V79.011c0-2.62,2.129-4.75,4.75-4.75h32.779c2.618,0,4.75,2.13,4.75,4.75v33.349c0,2.619-2.132,4.75-4.75,4.75
			c-1.489,0-2.699,1.211-2.699,2.699c0,1.489,1.21,2.699,2.699,2.699c5.595,0,10.146-4.553,10.146-10.148V79.011
			c0-1.717-0.431-3.332-1.186-4.75h9.549c1.488,0,2.699-1.21,2.699-2.698c0-1.088-0.648-2.02-1.576-2.447l8.604,0.134h0.065
			c1.334,0,2.589-0.636,3.377-1.716l1.41-1.93l0.37,10.537l-7.401,0.225c-2.978,0.091-5.413,2.404-5.655,5.373l-1.502,18.314
			c-0.025,0.159-0.05,0.319-0.062,0.483l-0.393,5.048l-0.639,7.786c-0.002,0.009,0,0.018-0.002,0.026c0,0,0.012,0.002,0.034,0.004
			l-0.138,1.762c-0.248,3.193,2.141,5.982,5.334,6.23c0.152,0.012,0.304,0.019,0.455,0.019c2.998,0,5.539-2.312,5.775-5.353
			l2.377-28.146l16.727-0.509c3.232-0.099,5.773-2.797,5.677-6.029C106.654,80.902,106.754,78.395,106.727,77.498z"/>
		<path d="M116.916,79.246c-0.016-0.727-0.031-1.417-0.031-2.045V49.219h-6.691v27.982c0,0.671,0.016,1.41,0.033,2.189
			c0.062,2.94,0.17,7.863-1.076,9.346c-1.672,1.987-6.479,1.92-10.348,1.865c-0.682-0.009-1.35-0.019-1.992-0.019H85.582v6.692
			h9.602v15.696h-3.132c-3.55,0-6.44,2.89-6.44,6.44h5.021c0-0.783,0.638-1.422,1.421-1.422h12.864c0.782,0,1.421,0.639,1.421,1.422
			h5.02c0-3.551-2.891-6.44-6.439-6.44h-3.04V97.306c4.537-0.071,9.396-0.696,12.396-4.263
			C117.141,89.629,117.018,83.872,116.916,79.246z"/>
		<polygon points="60.303,67.076 60.361,63.732 42.525,63.418 39.12,42.013 35.817,42.54 39.66,66.714 		"/>
		<path d="M54.538,33.041c9.108,0,16.521-7.411,16.521-16.52C71.059,7.411,63.648,0,54.538,0s-16.52,7.411-16.52,16.521
			C38.018,25.629,45.429,33.041,54.538,33.041z M41.483,14.847C42.24,8.921,46.938,4.221,52.866,3.464v1.702h3.346V3.464
			C62.14,4.22,66.84,8.921,67.595,14.847h-1.702v3.346h1.702c-0.755,5.926-5.455,10.626-11.383,11.383v-2.038h-3.346v2.038
			c-5.928-0.757-10.626-5.458-11.383-11.383h1.702v-3.346H41.483z"/>
		<polygon points="62.842,15.684 55.375,15.684 55.375,7.389 53.703,7.389 53.703,17.357 62.842,17.357 		"/>
		<circle cx="90.41" cy="33.041" r="10.86"/>
	</g>
</g>
</svg>